<svg width="52" height="64" viewBox="0 0 52 64" fill="none" xmlns="http://www.w3.org/2000/svg">
<path fill-rule="evenodd" clip-rule="evenodd" d="M25.0148 8.67673C22.4303 8.67673 19.5688 9.16902 18.4611 9.41517L10.2459 2.39995L8.67673 0L6.21509 8.26407C6.13357 8.53773 6.09217 8.82176 6.09217 9.1073V18.1842L0 26.4917L8.03059 31.5685L2.67686 30.6455L24.9225 58.586V46.2451L19.0308 41.5937C18.3212 41.0336 17.9073 40.1794 17.9073 39.2754V35.353H18.3688V37.6244C18.3688 39.3847 19.4109 40.9781 21.0236 41.6836L23.9151 42.9487C25.0834 43.4598 26.4154 43.4428 27.5702 42.9019L30.494 41.5325C32.0509 40.8033 33.0454 39.2393 33.0454 37.5201V35.353H33.5069V38.6316C33.5069 39.9465 32.9229 41.1935 31.9127 42.0353L26.8609 46.2451L26.635 58.522L48.8297 30.6455L43.3836 31.5685L51.4142 26.4917L45.1374 18.1842C45.0004 16.2878 45.0669 12.7795 45.1102 10.4943C45.1252 9.70251 45.1374 9.05675 45.1374 8.67673C45.1374 7.19984 43.4759 2.27687 42.6452 0L41.076 2.39995L32.5839 9.41517C31.1378 9.16902 27.5994 8.67673 25.0148 8.67673ZM14.0305 22.1533L10.9844 23.261L14.0305 23.8148L15.2376 25.6573C15.5787 26.178 16.1593 26.4917 16.7818 26.4917H20.1226L22.061 27.8763L21.138 25.1994L14.0305 22.1533ZM40.3376 23.1687L37.2915 22.061L30.1839 25.1071L29.2609 27.784L31.1993 26.3994H34.5401C35.1626 26.3994 35.7432 26.0857 36.0843 25.565L37.2915 23.7225L40.3376 23.1687ZM31.3839 35.2607H19.938V37.2793C19.938 38.4188 20.5935 39.4567 21.6225 39.9464L24.4542 41.2941C25.2675 41.6812 26.2131 41.6759 27.0221 41.2799L29.7288 39.955C30.7417 39.4591 31.3839 38.4298 31.3839 37.302V35.2607ZM42.3683 2.67686L43.3018 9.72091C43.3558 10.128 43.3242 10.5418 43.2093 10.936L40.7991 19.1996L38.3068 13.5689L42.3683 2.67686ZM7.92779 9.90552L8.86134 2.86147L12.9228 13.7535L10.4305 19.3842L8.02034 11.1206C7.90536 10.7264 7.87384 10.3126 7.92779 9.90552Z" fill="#B10DC9"/>
<path d="M24.9225 58.586L25.7533 59.6294L26.6332 58.5242L26.584 61.1986L32.9974 62.7411C33.1928 62.7881 33.1831 63.0692 32.985 63.1026L29.6105 63.6714C26.9961 64.112 24.3262 64.1095 21.7127 63.664L18.4312 63.1047C18.233 63.0709 18.224 62.7895 18.4196 62.7431L24.9225 61.1986L24.9225 58.586Z" fill="#B10DC9"/>
</svg>